<svg width="124" height="183" viewBox="0 0 124 183" fill="none" xmlns="http://www.w3.org/2000/svg">
<path d="M0 71.8067C2.10468 55.0166 22.2996 28.9075 32.134 17.9517C38.899 20.486 42.5947 30.2275 43.597 34.7814C37.1451 36.6293 19.3931 46.6216 0 71.8067Z" fill="#6A6869"/>
<path d="M115.45 182.081C93.5521 125.658 58.4243 59.0868 43.5977 32.8542C43.5977 30.5962 45.5701 26.6381 53.4597 28.8695C69.4001 72.0637 106.527 146.617 123.098 178.495C122.226 179.69 119.475 182.081 115.45 182.081Z" fill="#A34102"/>
<path d="M30.7744 6.03011L34.7711 15.3872L46.1616 10.1888C45.8951 8.80257 44.6029 4.82409 41.5654 0C39.1674 2.16252 33.3722 4.92112 30.7744 6.03011Z" fill="#A34102"/>
<path d="M48.7973 7.72189C40.8424 7.2378 33.4675 13.0335 30.7744 15.9919C33.8818 17.4038 40.8009 22.8499 43.6183 33.3386C44.9441 31.5636 50.938 29.7752 53.7691 29.1028C54.1144 26.6151 53.6034 18.8561 48.7973 7.72189Z" fill="#868686"/>
<path d="M46.1614 10.2583C43.1773 11.3104 36.9478 13.9275 35.9033 15.9792C43.2146 20.5559 45.1667 27.7497 45.2289 30.7745" stroke="#B0B0B0" stroke-linecap="round"/>
<path d="M101.299 8.97698C82.0655 -1.28211 57.6514 6.34116 49.1349 9.80244C48.2832 10.6847 48.198 16.1141 54.6706 30.7737C65.9125 17.5801 81.3558 11.9742 87.6723 10.8204C89.5885 10.6847 92.7154 9.80244 101.299 8.97698Z" fill="#6A6869"/>
<path d="M5.12891 61.5485C10.258 51.0798 22.5677 28.73 30.7742 23.0806" stroke="#868686" stroke-linecap="round"/>
<path d="M51.291 12.8225C57.5376 9.79079 77.5667 3.85202 87.1944 5.37492" stroke="#868686" stroke-linecap="round"/>
</svg>
